# xmcd CD database file
#
# Track frame offsets:
#	150
#	11562
#	25631
#	37249
#	49254
#	61545
#	74563
#	86049
#	96215
#	108108
#	121121
#	135632
#	148447
#	162773
#	174495
#	187861
#
# Disc length: 2671 seconds
#
# Revision: 4
# Processed by: cddbd v1.5.2PL0 Copyright (c) Steve Scherf et al.
# Submitted via: CDex 1.51
#
DISCID=d50a6d10
DTITLE=Ray Charles - It Should've Been Me
DYEAR=2008
DGENRE=Blues
TTITLE0=Confession Blues
TTITLE1=Someday
TTITLE2=How Long, How Long Blues
TTITLE3=Mess Around
TTITLE4=It Should've Been Me
TTITLE5=I've Got A Woman
TTITLE6=This Little Girl Of Mine
TTITLE7=Swanee River
TTITLE8=Nobody Cares
TTITLE9=Ray's Blues
TTITLE10=Funny But I Still Love You
TTITLE11=Heartbreaker
TTITLE12=Kiss-A Me Baby
TTITLE13=Roll With Me Baby
TTITLE14=The Midnight Hour
TTITLE15=Mr. Charles Blues
EXTD=YEAR: 2008
EXTT0=
EXTT1=
EXTT2=
EXTT3=
EXTT4=
EXTT5=
EXTT6=
EXTT7=
EXTT8=
EXTT9=
EXTT10=
EXTT11=
EXTT12=
EXTT13=
EXTT14=
EXTT15=
PLAYORDER=
